<svg width="800" height="800" viewBox="0 0 800 800" fill="none" xmlns="http://www.w3.org/2000/svg">
<path d="M360.069 592.333C363.147 592.338 366.193 592.948 369.034 594.13C371.876 595.312 374.457 597.041 376.63 599.22C378.802 601.399 380.525 603.985 381.698 606.83C382.872 609.675 383.474 612.723 383.469 615.8C383.465 618.877 382.855 621.924 381.673 624.765C380.491 627.606 378.762 630.187 376.582 632.36C374.403 634.533 371.818 636.255 368.973 637.429C366.128 638.603 363.08 639.204 360.003 639.2C353.788 639.191 347.831 636.714 343.443 632.313C339.054 627.912 336.594 621.948 336.603 615.733C336.612 609.518 339.089 603.562 343.49 599.173C347.891 594.785 353.855 592.325 360.069 592.333ZM727.536 447.433C724.459 447.431 721.412 446.823 718.57 445.643C715.728 444.464 713.146 442.736 710.971 440.558C708.797 438.381 707.072 435.796 705.897 432.952C704.721 430.108 704.117 427.061 704.119 423.983C704.122 420.906 704.73 417.859 705.91 415.017C707.089 412.175 708.817 409.593 710.995 407.418C713.172 405.244 715.757 403.52 718.601 402.344C721.445 401.168 724.492 400.565 727.569 400.567C733.784 400.571 739.743 403.044 744.134 407.442C748.526 411.84 750.99 417.802 750.986 424.017C750.982 430.232 748.509 436.19 744.111 440.582C739.713 444.973 733.751 447.438 727.536 447.433ZM727.536 351.567C708.322 351.584 689.9 359.225 676.314 372.811C662.728 386.397 655.087 404.819 655.069 424.033C655.069 431.8 656.369 439.533 658.903 447.067L419.536 574.5C412.899 564.863 404.018 556.984 393.658 551.543C383.298 546.102 371.771 543.262 360.069 543.267C332.436 543.267 307.269 559.1 295.069 583.8L80.0361 470.4C57.3028 458.467 40.3028 421.067 42.1028 387C43.0361 369.233 49.1695 355.433 58.5361 350.1C64.4695 346.767 71.6028 347.033 79.2028 351L80.6028 351.767C137.603 381.767 324.069 480 331.936 483.633C344.036 489.267 350.769 491.533 371.436 481.733L756.903 281.267C762.569 279.133 769.169 273.7 769.169 265.467C769.169 254.067 757.369 249.567 757.336 249.567C735.403 239.067 701.703 223.3 668.836 207.9C598.569 175 518.936 137.733 483.969 119.4C453.769 103.6 429.469 116.933 425.136 119.6L416.736 123.767C259.336 201.6 48.6695 305.933 36.6695 313.233C15.2361 326.3 1.93614 352.333 0.202805 384.633C-2.46386 435.867 23.6361 489.3 61.0028 508.867L288.403 626.133C290.908 643.359 299.527 659.109 312.685 670.504C325.843 681.9 342.663 688.181 360.069 688.2C379.08 688.168 397.32 680.677 410.865 667.337C424.41 653.997 432.18 635.875 432.503 616.867L682.969 481.1C695.636 491.033 711.403 496.467 727.536 496.467C746.75 496.449 765.172 488.809 778.758 475.222C792.345 461.636 799.985 443.214 800.003 424C799.985 404.786 792.345 386.364 778.758 372.778C765.172 359.192 746.75 351.551 727.536 351.533" fill="white"/>
</svg>
