<svg width="26" height="25" viewBox="0 0 26 25" fill="none" xmlns="http://www.w3.org/2000/svg">
<path d="M13.3281 0C6.42438 0 0.828125 5.59625 0.828125 12.5C0.828125 18.0544 4.45375 22.7569 9.46562 24.385H17.1906C22.2025 22.7569 25.8281 18.0544 25.8281 12.5C25.8281 5.59625 20.2319 0 13.3281 0Z" fill="url(#paint0_linear_297_55)"/>
<path d="M17.0844 23.7475L17.0781 20.1238C17.0781 19.5369 16.9406 18.9638 16.6769 18.4444C20.2025 17.7363 21.9181 15.6519 21.9181 12.0837C21.9181 10.6744 21.5025 9.43 20.6831 8.38375C20.7456 8.18562 20.7919 7.98063 20.8206 7.77063C20.9381 6.915 20.8062 6.35562 20.7 5.90562L20.6831 5.83313C20.5669 5.33563 20.4275 4.98062 20.4219 4.96562L20.2831 4.61312L19.905 4.57312C19.905 4.57312 19.7806 4.56 19.5919 4.56C19.33 4.56 18.9419 4.58625 18.575 4.71062L18.4525 4.75187C17.99 4.9075 17.5531 5.055 16.9419 5.42C16.7631 5.52687 16.5675 5.64875 16.3581 5.785C15.4119 5.55062 14.3938 5.43125 13.3281 5.43125C12.2519 5.43125 11.225 5.55125 10.2725 5.78812C10.0606 5.65062 9.86375 5.5275 9.68375 5.42C9.0725 5.055 8.63562 4.90812 8.17312 4.75187L8.05062 4.71062C7.685 4.58625 7.29625 4.56 7.03438 4.56C6.84563 4.56 6.72125 4.57312 6.72125 4.57312L6.5325 4.59312L6.345 4.6125L6.20438 4.965C6.19813 4.98125 6.05875 5.33625 5.9425 5.83437L5.92562 5.90625C5.81937 6.35562 5.6875 6.91563 5.805 7.77063C5.835 7.98688 5.88313 8.19875 5.94875 8.4025C5.14563 9.44375 4.73875 10.6812 4.73875 12.0837C4.73875 15.6431 6.45625 17.7263 9.98687 18.44C9.86562 18.6825 9.77125 18.9387 9.70437 19.205C9.58125 19.2469 9.46812 19.275 9.36812 19.2906C9.21937 19.3131 9.06375 19.3244 8.90625 19.3244C8.4775 19.3244 8.14062 19.2406 8.00937 19.1625C7.81375 19.0463 7.46438 18.7081 7.12563 18.2137C6.83625 17.7919 6.385 17.24 5.88062 17.0094C5.44437 16.81 4.9825 16.6956 4.6125 16.6956C4.52625 16.6956 4.44687 16.7019 4.3775 16.7131C4.05437 16.7644 3.78437 16.9419 3.6375 17.2006C3.51062 17.4237 3.49062 17.6837 3.5825 17.9137C3.71937 18.2562 4.11437 18.5294 4.42187 18.6981C4.57312 18.7812 4.9 19.085 5.09062 19.3913C5.23375 19.6213 5.3 19.785 5.39187 20.0113C5.44625 20.1456 5.50625 20.2919 5.5875 20.4688C5.88125 21.1075 6.79813 21.6712 6.90188 21.7331C7.40562 22.035 8.2525 22.1319 8.875 22.16L8.95187 22.1619C9.10187 22.1619 9.30875 22.1475 9.58 22.1175V23.7506C9.58125 24.0812 9.24437 24.1562 8.79875 24.1494L9.14062 24.2644C10.45 24.7325 11.8563 25 13.3281 25C14.8 25 16.2062 24.7325 17.5175 24.265L17.9569 24.1012C17.5125 24.0862 17.0881 24.0137 17.0844 23.7475Z" fill="black"/>
<path d="M17.5662 24.2481C17.3125 24.2775 16.7656 24.18 16.7656 23.7512V20.1238C16.7656 19.44 16.5606 18.7794 16.1806 18.2162C19.8775 17.6181 21.605 15.6581 21.605 12.0837C21.605 10.6856 21.1762 9.4625 20.3306 8.445C20.4162 8.21687 20.4763 7.97625 20.5106 7.72812C20.62 6.93062 20.5006 6.42437 20.3956 5.9775L20.3787 5.905C20.2675 5.42937 20.1362 5.09437 20.1306 5.08062L20.0612 4.90438L19.8719 4.88437C19.8719 4.88437 19.7606 4.8725 19.5912 4.8725C19.3531 4.8725 19.0012 4.89562 18.675 5.00687L18.5525 5.04812C18.1062 5.19875 17.6844 5.34062 17.1019 5.68812C16.8944 5.81187 16.6631 5.9575 16.4137 6.12187C15.4556 5.87125 14.4188 5.74375 13.3281 5.74375C12.2269 5.74375 11.1813 5.87187 10.2163 6.125C9.96438 5.95938 9.73188 5.81312 9.52313 5.68812C8.94063 5.34062 8.51875 5.19812 8.0725 5.04812L7.95 5.00687C7.62438 4.89625 7.27188 4.8725 7.03375 4.8725C6.86438 4.8725 6.75313 4.88437 6.75313 4.88437L6.56438 4.90438L6.49375 5.08125C6.48813 5.095 6.35688 5.43 6.24563 5.90562L6.22875 5.97812C6.12313 6.425 6.00375 6.93062 6.11375 7.72812C6.14875 7.9825 6.21125 8.22875 6.3 8.46187C5.47063 9.47437 5.05062 10.6912 5.05062 12.0837C5.05062 15.6481 6.77937 17.6075 10.4794 18.2125C10.2325 18.5812 10.06 18.9969 9.97125 19.44C9.765 19.5213 9.57813 19.575 9.41438 19.6C9.25 19.625 9.07875 19.6375 8.90563 19.6375C8.47438 19.6375 8.06 19.5569 7.84938 19.4319C7.57438 19.2688 7.18875 18.8606 6.86688 18.3912C6.64813 18.0725 6.2125 17.5056 5.74937 17.2944C5.3525 17.1131 4.93813 17.0088 4.61125 17.0088C4.5425 17.0088 4.48 17.0137 4.425 17.0225C4.19625 17.0587 4.0075 17.18 3.9075 17.3563C3.8275 17.4963 3.81438 17.6581 3.87063 17.7987C3.9825 18.0787 4.39688 18.33 4.57 18.425C4.77938 18.54 5.14438 18.89 5.35375 19.2275C5.51063 19.48 5.585 19.6631 5.67938 19.8944C5.7325 20.025 5.79063 20.1675 5.86938 20.3394C6.07625 20.7887 6.715 21.2594 7.06 21.4662C7.53125 21.7487 8.40625 21.8275 8.88625 21.8487L8.95563 21.85C9.1425 21.85 9.45563 21.8219 9.89 21.7656V23.7512C9.89 24.2381 9.27062 24.2575 9.11875 24.2575C9.09937 24.2575 9.43313 24.3725 9.43313 24.3725C10.66 24.775 11.9669 25 13.3281 25C14.6894 25 15.9962 24.775 17.2225 24.3731C17.2225 24.3731 17.5856 24.2456 17.5662 24.2481Z" fill="black"/>
<path d="M21.2931 12.0837C21.2931 10.64 20.8044 9.4425 19.97 8.50375C20.0606 8.30063 20.155 8.02813 20.2019 7.68563C20.3094 6.90438 20.1825 6.43562 20.075 5.97687C19.9675 5.51812 19.8406 5.19562 19.8406 5.19562C19.8406 5.19562 19.2644 5.13687 18.7762 5.30312C18.2881 5.46937 17.8681 5.59625 17.2625 5.9575C16.9794 6.12625 16.6944 6.31125 16.4688 6.46125C15.5044 6.19375 14.4438 6.05625 13.3281 6.05625C12.2025 6.05625 11.1325 6.19437 10.1613 6.46375C9.935 6.31312 9.64812 6.12688 9.36312 5.95688C8.7575 5.59563 8.3375 5.46875 7.84937 5.3025C7.36125 5.13625 6.785 5.195 6.785 5.195C6.785 5.195 6.65813 5.5175 6.55063 5.97625C6.44313 6.435 6.31625 6.90375 6.42375 7.685C6.47187 8.03625 6.56937 8.31375 6.6625 8.51813C5.84375 9.45125 5.36375 10.6413 5.36375 12.0831C5.36375 15.8225 7.38375 17.5294 11.0644 17.98C10.635 18.4338 10.3469 19.015 10.25 19.6619C10.0081 19.7681 9.72937 19.8681 9.46125 19.9081C8.77125 20.0125 8.04187 19.9081 7.69062 19.7C7.33937 19.4919 6.9225 19.0231 6.61 18.5669C6.34625 18.1819 5.96563 17.735 5.62063 17.5775C5.165 17.3694 4.72187 17.2912 4.475 17.33C4.2275 17.3694 4.11062 17.5513 4.1625 17.6819C4.21437 17.8119 4.46187 18.0075 4.7225 18.1506C4.98312 18.2938 5.38687 18.6844 5.62125 19.0619C5.8825 19.4831 5.93375 19.7263 6.155 20.2075C6.31062 20.5463 6.84312 20.9694 7.2225 21.1969C7.54812 21.3925 8.19875 21.5038 8.9025 21.5356C9.14563 21.5469 9.72 21.4756 10.2044 21.4069V23.7506C10.2044 24.15 9.83875 24.4538 9.46 24.3838C10.6756 24.7925 11.9737 25 13.3281 25C14.6819 25 15.98 24.7925 17.1969 24.385C16.8188 24.4544 16.4531 24.1506 16.4531 23.7512V20.1238C16.4531 19.2931 16.1238 18.5425 15.595 17.9831C19.2488 17.5444 21.2931 15.8781 21.2931 12.0837ZM5.3525 17.9544C5.25625 17.905 5.20438 17.8137 5.23688 17.7494C5.26938 17.685 5.37438 17.6731 5.47063 17.7225C5.56688 17.7719 5.61875 17.8631 5.58625 17.9275C5.55375 17.9919 5.44875 18.0038 5.3525 17.9544ZM6.11 18.4262C6.05938 18.4812 5.95063 18.4637 5.86688 18.3875C5.78313 18.3112 5.75625 18.2044 5.80687 18.1494C5.8575 18.0944 5.96625 18.1119 6.05 18.1881C6.13375 18.2644 6.16063 18.3712 6.11 18.4262ZM6.58125 19.2075C6.5175 19.2525 6.40938 19.2106 6.34 19.1138C6.27063 19.0169 6.26625 18.9012 6.33 18.8562C6.39375 18.8112 6.50187 18.8531 6.57125 18.95C6.64 19.0469 6.645 19.1625 6.58125 19.2075ZM7.25812 19.7956C7.215 19.8656 7.0925 19.8688 6.985 19.8031C6.8775 19.7375 6.825 19.6275 6.86812 19.5575C6.91125 19.4875 7.03375 19.4844 7.14125 19.55C7.24875 19.6156 7.30125 19.7256 7.25812 19.7956ZM7.89813 20.3713C7.765 20.355 7.66625 20.2719 7.6775 20.1856C7.68812 20.0994 7.805 20.0431 7.9375 20.0594C8.07063 20.0756 8.16937 20.1587 8.15812 20.245C8.1475 20.3306 8.03125 20.3875 7.89813 20.3713ZM8.93 20.5206C8.78812 20.5125 8.6775 20.4313 8.68313 20.34C8.68875 20.2488 8.80813 20.1806 8.95 20.1887C9.09188 20.1969 9.2025 20.2781 9.19687 20.3694C9.19125 20.4613 9.07187 20.5288 8.93 20.5206ZM9.90375 20.4231C9.7525 20.4231 9.63 20.3444 9.63 20.2475C9.63 20.1506 9.7525 20.0719 9.90375 20.0719C10.055 20.0719 10.1775 20.1506 10.1775 20.2475C10.1775 20.3444 10.0544 20.4231 9.90375 20.4231Z" fill="white"/>
<defs>
<linearGradient id="paint0_linear_297_55" x1="0.828125" y1="12.5" x2="25.8281" y2="12.5" gradientUnits="userSpaceOnUse">
<stop stop-color="#262626"/>
<stop offset="1" stop-color="#343434"/>
</linearGradient>
</defs>
</svg>
