<svg width="24" height="24" viewBox="0 0 24 24" fill="none" xmlns="http://www.w3.org/2000/svg">
<path d="M16.8333 1.16699H6.83333C3.58333 1.16699 1 3.75033 1 7.00033V17.0003C1 20.2503 3.58333 22.8337 6.83333 22.8337H16.8333C20.0833 22.8337 22.6667 20.2503 22.6667 17.0003V7.00033C22.6667 3.75033 20.0833 1.16699 16.8333 1.16699Z" fill="#262626"/>
<path d="M17.6675 6.16717C18.1277 6.16717 18.5008 5.79407 18.5008 5.33383C18.5008 4.8736 18.1277 4.5005 17.6675 4.5005C17.2073 4.5005 16.8342 4.8736 16.8342 5.33383C16.8342 5.79407 17.2073 6.16717 17.6675 6.16717Z" fill="#262626"/>
<path d="M11.8203 17C14.5817 17 16.8203 14.7614 16.8203 12C16.8203 9.23858 14.5817 7 11.8203 7C9.05889 7 6.82031 9.23858 6.82031 12C6.82031 14.7614 9.05889 17 11.8203 17Z" fill="#262626"/>
<path d="M16.8333 0.166992H6.83333V2.16699H16.8333V0.166992ZM6.83333 0.166992C3.03105 0.166992 0 3.19804 0 7.00033H2C2 4.30261 4.13562 2.16699 6.83333 2.16699V0.166992ZM0 7.00033V17.0003H2V7.00033H0ZM0 17.0003C0 20.8026 3.03105 23.8337 6.83333 23.8337V21.8337C4.13562 21.8337 2 19.698 2 17.0003H0ZM6.83333 23.8337H16.8333V21.8337H6.83333V23.8337ZM16.8333 23.8337C20.6356 23.8337 23.6667 20.8026 23.6667 17.0003H21.6667C21.6667 19.698 19.531 21.8337 16.8333 21.8337V23.8337ZM23.6667 17.0003V7.00033H21.6667V17.0003H23.6667ZM23.6667 7.00033C23.6667 3.19804 20.6356 0.166992 16.8333 0.166992V2.16699C19.531 2.16699 21.6667 4.30261 21.6667 7.00033H23.6667ZM17.5008 5.33383C17.5008 5.24178 17.5754 5.16717 17.6675 5.16717V7.16717C18.68 7.16717 19.5008 6.34636 19.5008 5.33383H17.5008ZM17.6675 5.16717C17.7595 5.16717 17.8342 5.24179 17.8342 5.33383H15.8342C15.8342 6.34635 16.655 7.16717 17.6675 7.16717V5.16717ZM17.8342 5.33383C17.8342 5.42588 17.7595 5.5005 17.6675 5.5005V3.5005C16.655 3.5005 15.8342 4.32131 15.8342 5.33383H17.8342ZM17.6675 5.5005C17.5754 5.5005 17.5008 5.42588 17.5008 5.33383H19.5008C19.5008 4.32131 18.68 3.5005 17.6675 3.5005V5.5005ZM15.8203 12C15.8203 14.2091 14.0295 16 11.8203 16V18C15.134 18 17.8203 15.3137 17.8203 12H15.8203ZM11.8203 16C9.61117 16 7.82031 14.2091 7.82031 12H5.82031C5.82031 15.3137 8.5066 18 11.8203 18V16ZM7.82031 12C7.82031 9.79086 9.61117 8 11.8203 8V6C8.5066 6 5.82031 8.68629 5.82031 12H7.82031ZM11.8203 8C14.0295 8 15.8203 9.79086 15.8203 12H17.8203C17.8203 8.68629 15.134 6 11.8203 6V8Z" fill="white"/>
</svg>
