<svg width="26" height="25" viewBox="0 0 26 25" fill="none" xmlns="http://www.w3.org/2000/svg">
<path d="M25.5781 21.3125C25.5781 23.2114 24.0395 24.75 22.1406 24.75H4.26562C2.36744 24.75 0.828125 23.2114 0.828125 21.3125V3.4375C0.828125 1.53863 2.36744 0 4.26562 0H22.1406C24.0395 0 25.5781 1.53863 25.5781 3.4375V21.3125Z" fill="#262626"/>
<path d="M17.3281 21.3125V14.3694C17.3281 13.2082 16.7651 12.5146 15.8211 12.5146C15.2608 12.5146 14.849 12.8301 14.5981 13.4523C14.5864 13.4963 14.5699 13.6757 14.5767 14.2182L14.5781 21.3125H9.76562V8.25H14.5781V8.97944C15.2807 8.49475 16.1422 8.25 17.148 8.25C20.2741 8.25 22.1399 10.3764 22.1399 13.9384L22.1406 21.3125H17.3281ZM4.26562 21.3125V8.25H6.64231C5.26525 8.25 4.26562 7.238 4.26562 5.84306C4.26562 4.4495 5.28175 3.4375 6.6815 3.4375C8.06475 3.4375 9.04994 4.42131 9.07812 5.82931C9.07812 7.23456 8.06131 8.25 6.66156 8.25H9.07812V21.3125H4.26562Z" fill="black"/>
<path d="M17.6719 20.9688V14.3694C17.6719 13.013 16.9631 12.1708 15.8211 12.1708C14.9308 12.1708 14.4908 12.7978 14.2791 13.3237C14.2227 13.4606 14.2302 14.0037 14.233 14.2354L14.2344 20.9688H10.1094V8.59375H14.2344V9.71988C14.7809 9.15406 15.6609 8.59375 17.148 8.59375C20.0582 8.59375 21.7962 10.5916 21.7962 13.9384L21.7969 20.9688H17.6719ZM4.60938 20.9688V8.59375H8.73438V20.9688H4.60938ZM6.64231 7.90625C5.46463 7.90625 4.60938 7.03862 4.60938 5.84306C4.60938 4.64819 5.48112 3.78125 6.6815 3.78125C7.86675 3.78125 8.71031 4.62619 8.73438 5.83619C8.73438 7.03863 7.86262 7.90625 6.66156 7.90625H6.64231Z" fill="black"/>
<path d="M4.95312 8.9375H8.39062V20.625H4.95312V8.9375ZM6.66156 7.5625H6.64231C5.61656 7.5625 4.95312 6.798 4.95312 5.84306C4.95312 4.8675 5.63719 4.125 6.6815 4.125C7.72719 4.125 8.37138 4.8675 8.39062 5.84306C8.39062 6.79731 7.72719 7.5625 6.66156 7.5625ZM21.4531 20.625H18.0156V14.3694C18.0156 12.8583 17.1734 11.8271 15.8211 11.8271C14.7892 11.8271 14.2309 12.5228 13.9601 13.1952C13.8611 13.4358 13.8906 14.1013 13.8906 14.4375V20.625H10.4531V8.9375H13.8906V10.736C14.3863 9.96875 15.1625 8.9375 17.148 8.9375C19.6079 8.9375 21.4524 10.4844 21.4524 13.9384L21.4531 20.625Z" fill="white"/>
</svg>
