<?xml version="1.0" encoding="utf-8"?>
<!-- Generator: Adobe Illustrator 19.0.0, SVG Export Plug-In . SVG Version: 6.00 Build 0)  -->
<svg version="1.1" id="Layer_1" xmlns="http://www.w3.org/2000/svg" xmlns:xlink="http://www.w3.org/1999/xlink" x="0px" y="0px"
	 viewBox="-205 297 200 200" style="enable-background:new -205 297 200 200;" xml:space="preserve">
<style type="text/css">
	.st0{fill:#515151;}
</style>
<path class="st0" d="M-105,309.5c-48.3,0-87.5,39.2-87.5,87.5s39.2,87.5,87.5,87.5s87.5-39.2,87.5-87.5S-56.7,309.5-105,309.5z
	 M-85.4,339.6c3.2-5.6,10.4-7.5,16-4.3c5.6,3.2,7.5,10.4,4.3,16c-3.2,5.6-10.4,7.5-16,4.3S-88.6,345.2-85.4,339.6L-85.4,339.6z
	 M-105,346.2c4.7,0,9.2,0.6,13.6,1.8c0.8,4.7,3.6,9,8,11.6c4.4,2.6,9.6,2.8,14,1.1c8.6,8.5,14.3,20,15.1,32.9L-71,394
	c-1.5-17.4-16.2-31.1-34-31.1c-5.1,0-10,1.1-14.4,3.2l-8.1-14.5C-120.7,348.1-113.1,346.2-105,346.2L-105,346.2L-105,346.2z
	 M-164.5,408.7c-6.5,0-11.7-5.2-11.7-11.7c0-6.5,5.2-11.7,11.7-11.7c6.5,0,11.7,5.2,11.7,11.7C-152.8,403.5-158.1,408.7-164.5,408.7
	z M-154.1,409.7c3.7-3,6-7.6,6-12.7s-2.4-9.7-6-12.7c3.2-12.2,10.8-22.7,21-29.5l8.5,14.3c-8.8,6.2-14.5,16.4-14.5,27.9
	s5.7,21.7,14.5,27.9l-8.5,14.3C-143.4,432.4-151,422-154.1,409.7z M-69.4,458.6c-5.6,3.2-12.7,1.3-16-4.3s-1.3-12.7,4.3-16
	c5.6-3.2,12.7-1.3,15.9,4.3C-61.9,448.3-63.8,455.4-69.4,458.6L-69.4,458.6z M-69.4,433.2c-4.4-1.7-9.6-1.4-14,1.1
	c-4.4,2.6-7.2,6.9-8,11.6c-4.3,1.2-8.9,1.8-13.6,1.8c-8.1,0-15.7-1.9-22.5-5.3l8.1-14.5c4.4,2,9.2,3.2,14.4,3.2
	c17.8,0,32.5-13.7,34-31.1l16.7,0.2C-55.2,413.1-60.8,424.7-69.4,433.2z"/>
</svg>
