<?xml version="1.0" encoding="utf-8"?>
<!-- Generator: Adobe Illustrator 19.0.0, SVG Export Plug-In . SVG Version: 6.00 Build 0)  -->
<svg version="1.1" id="Layer_1" xmlns="http://www.w3.org/2000/svg" xmlns:xlink="http://www.w3.org/1999/xlink" x="0px" y="0px"
	 viewBox="-205 297 200 200" style="enable-background:new -205 297 200 200;" xml:space="preserve">
<style type="text/css">
	.st0{fill:#515151;}
</style>
<path class="st0" d="M-105,311.6c-48.3,0-87.5,39.2-87.5,87.5c0,38.7,25.1,71.5,59.8,83c4.4,0.8,6-1.9,6-4.2c0-2.1-0.1-9-0.1-16.3
	c-24.3,5.3-29.5-10.3-29.5-10.3c-4-10.1-9.7-12.8-9.7-12.8c-8-5.4,0.6-5.3,0.6-5.3c8.8,0.6,13.4,9,13.4,9
	c7.8,13.4,20.5,9.5,25.5,7.3c0.8-5.6,3.1-9.5,5.6-11.7c-19.4-2.2-39.9-9.7-39.9-43.2c0-9.6,3.4-17.4,9-23.5
	c-0.9-2.2-3.9-11.1,0.9-23.2c0,0,7.3-2.3,24.1,9c7-2,14.5-2.9,21.9-2.9c7.4,0,14.9,1,21.9,3c16.7-11.3,24-9,24-9
	c4.8,12.1,1.8,20.9,0.9,23.2c5.6,6.1,9,13.9,9,23.5c0,33.6-20.5,41-40,43.2c3.2,2.7,5.9,8,5.9,16.2c0,11.7-0.1,21.1-0.1,24
	c0,2.3,1.6,5.1,6,4.2c34.7-11.6,59.8-44.4,59.8-83C-17.5,350.8-56.7,311.7-105,311.6L-105,311.6z"/>
</svg>
