<?xml version="1.0" encoding="utf-8"?>
<!-- Generator: Adobe Illustrator 19.0.0, SVG Export Plug-In . SVG Version: 6.00 Build 0)  -->
<svg version="1.1" id="Layer_1" xmlns="http://www.w3.org/2000/svg" xmlns:xlink="http://www.w3.org/1999/xlink" x="0px" y="0px"
	 viewBox="-205 297 200 200" style="enable-background:new -205 297 200 200;" xml:space="preserve">
<style type="text/css">
	.st0{fill:#515151;}
</style>
<path class="st0" d="M-140.5,317.6c-10.1,2.2-15.5,14-14.4,31.3c0.3,5,0.3,4.5,1.3,11c0.4,2.6,0.7,4.8,0.7,4.8
	c-0.1,0.1-1.8,0.5-3.9,1c-13.8,3.2-23.9,7.9-30,14.1c-4.1,4.1-5.8,8-5.8,12.8c0,2.7,0.9,5.7,2.6,8.6c1.4,2.5,6.5,7.5,9.9,9.8
	c7,4.7,9.2,5.4,11.1,3.5c0.8-0.8,1-1.2,1-2.2c0-1.9-0.6-2.8-2.8-4c-9.6-5.3-14.6-10.9-14.6-16.2c0-1.9,0.7-3.7,2.3-5.8
	c4.2-5.6,14.4-10.7,28.1-13.9c3.6-0.8,4.3-0.9,4.3-0.3c0,0.8,2.9,10.1,4.8,15.2l1.9,5.1l-2.3,4.4c-1.3,2.4-3.1,6.1-4,8.2
	c-13.4,29.4-15.6,52.8-5.9,62.4c2.3,2.3,4.1,3.3,7.2,4.1c7,1.8,16.4-0.9,26.8-7.8c3.6-2.4,4.5-3.3,4.5-4.9c0-1.9-2.1-3.8-4-3.5
	c-0.5,0.1-2.6,1.2-4.5,2.5c-4.3,2.9-9.1,5.3-12.6,6.3c-3.6,1.1-7.5,1.1-9.7,0.1c-6.8-3-8.4-15.1-4.1-31.9c2-8,6.5-20,10.6-28.2
	l1.6-3.3l0.9,2c1.7,3.9,8.3,16.6,10.8,21c14.2,24.1,30.2,41.8,44.4,49c10.1,5.1,18.3,4.7,24-1.4c4.2-4.4,6.2-10.8,6.6-20.4
	c0.6-16.5-4.8-38.1-15.4-61.1c-1.4-3.1-2.8-5.9-3.1-6.2c-0.6-0.7-2.3-1.2-3.4-0.9c-1.1,0.2-2.4,1.6-2.6,2.7c-0.2,1.1,0,1.8,2.6,7.4
	c7.2,15.6,12.3,32,14.2,46c0.6,4.6,0.8,14.7,0.2,17.8c-0.6,3.1-1.7,6.4-2.9,8.2c-2,3-4.2,4.2-7.9,4.2c-11,0-28.3-15.1-43.7-38
	c-7.1-10.6-13.6-22.5-18.6-34.2l-1.8-4.2l2.5-4.3c3.3-5.5,6.7-10.8,10.5-16.2l3.1-4.3h4.7c32.4,0,64.5,7.3,81,18.4
	c3.8,2.5,7.4,6.2,8.6,8.8c0.9,1.8,1,2.3,1,4.4c0,2-0.1,2.6-0.8,3.8c-2,3.9-7.1,7.8-14.2,10.9c-3.3,1.4-4.4,2.4-4.4,4.1
	c0,1.6,0.6,2.7,1.9,3.3c1.3,0.6,1.8,0.6,4-0.3c10.2-4.1,17.5-10.2,19.8-16.3c4.3-11.4-4.7-22.8-24.3-31.4
	c-17.2-7.5-42.4-12.2-68.7-12.8l-2.9-0.1l3.3-3.8c3.8-4.4,12.1-12.8,15.7-15.8c8.5-7.2,16.1-11.7,22.7-13.6c3.2-0.9,7.2-0.9,9.3,0
	c2.8,1.3,4.7,4.1,5.8,8.4c0.7,2.6,0.7,10.7,0,14.6c-0.8,4.3-0.7,5.1,0.5,6.2c0.8,0.8,1.2,1,2.4,1c2.6,0,3.3-1,4-5.7
	c0.4-2.4,0.6-4.7,0.6-9.5c0-5.5-0.1-6.6-0.7-8.9c-1.8-7.3-6.3-12.3-12.3-13.7c-13.9-3.3-35.2,10.1-56.4,35.5
	c-1.7,2.1-3.4,4.1-3.6,4.5c-0.4,0.6-0.7,0.7-5,1c-2.4,0.1-6.9,0.6-10,0.9c-8.1,0.9-7.5,1-7.9-1.1c-1.2-5.9-1.6-10-1.7-16.3
	c0-6.9,0.2-8.9,1.5-12.7c1.3-4,3.6-6.8,6.5-7.7c1.4-0.5,4.8-0.4,6.9,0.1c3.4,0.9,8.2,3.5,12.6,6.8c2.6,2,3.5,2.3,4.9,1.8
	c1.6-0.5,2.5-1.8,2.5-3.4c0-1.2-0.1-1.5-1.4-2.7c-1.8-1.7-7-5.2-10.2-6.8C-130.5,317.6-135.8,316.6-140.5,317.6L-140.5,317.6z
	 M-129.6,369.2c0,0.1-1.9,3-4.2,6.4c-2.2,3.4-4.5,6.8-4.9,7.6l-0.8,1.4l-0.7-1.9c-0.9-2.3-3.6-11.2-3.6-11.8c0-0.5,1.3-0.7,10.8-1.7
	C-131,369-129.4,369-129.6,369.2L-129.6,369.2z M-107.4,387.2c-2.1,0.7-4.1,2.2-5.3,3.9c-3.6,5.3-1.8,12.1,3.8,14.9
	c1.7,0.9,2.2,1,4.6,1s2.8-0.1,4.6-1c7.6-3.7,7.4-14.8-0.3-18.3C-102.1,386.8-105.3,386.6-107.4,387.2L-107.4,387.2z"/>
</svg>
