<?xml version="1.0" encoding="utf-8"?>
<!-- Generator: Adobe Illustrator 19.0.0, SVG Export Plug-In . SVG Version: 6.00 Build 0)  -->
<svg version="1.1" id="Layer_1" xmlns="http://www.w3.org/2000/svg" xmlns:xlink="http://www.w3.org/1999/xlink" x="0px" y="0px"
	 viewBox="0 0 100 100" style="enable-background:new 0 0 100 100;" xml:space="preserve">
<style type="text/css">
	.st0{fill:#FFFFFF;}
</style>
<g>
	<path class="st0" d="M0,70.1c0-18.5,0-36.9,0-55.4c10.9,0,21.8,0,32.7,0c0,2.1,0,4.2,0,6.3c1.4,0,2.8-0.1,4.2,0
		c2.7,0.1,5.3,0.7,7.8,1.7C50.8,25,56,28.8,60.2,33.7c0.1,0.1,0.2,0.3,0.4,0.5c-0.1,0.1-0.2,0.3-0.3,0.4c-3,3.4-6.3,6.4-9.9,9
		c-2.6,1.8-5.4,3.4-8.5,4.4c-2.2,0.7-4.4,1.1-6.7,1c-0.8,0-1.6-0.1-2.5-0.2c0,1.3,0,2.5,0,3.8c2.2,0.3,4.5,0.2,6.7-0.1
		c4.3-0.5,8.3-1.9,12.1-4c3.5-1.9,6.7-4.2,9.7-6.8c0.8-0.7,1.6-1.4,2.4-2c0.8,0.4,1.5,0.9,2.2,1.3c1.7,1,3.3,1.9,5,2.9
		c0.3,0.2,0.6,0.4,0.9,0.7c-0.1,0.1-0.2,0.2-0.3,0.3c-1.4,0.9-2.7,1.9-4.1,2.7c-3.1,1.8-6.4,3.2-9.8,4.4c-4,1.4-8,2.6-12.1,3.3
		c-2.2,0.4-4.5,0.7-6.7,1c-1.4,0.2-2.9,0.1-4.3,0.1c-0.6,0-1.2,0-1.8-0.1c0,1.8,0,3.6,0,5.4c14.8,0,29.6,0,44.4,0c0-0.2,0-0.4,0-0.6
		c0-15.2,0-30.5,0-45.7c0-0.2,0-0.4,0-0.6c7.7,0,15.4,0,23.1,0c0,24.7,0,49.3,0,74c-33.4,0-66.8,0-100.2,0c0-0.3,0-0.6,0-0.9
		c0.2,0,0.3,0,0.5,0c1.4,0,2.7,0,4.1,0c0.2,0,0.3,0,0.5,0c0-4.5,0-8.9,0-13.4c1.3,0,2.5,0,3.7,0c0.3,0,0.6,0,0.9,0
		c1.6,0.2,2.5,1,2.9,2.6c0.1,0.5,0.2,1.1,0.2,1.6c0,2.9,0,5.7,0.1,8.6c0,0.2,0,0.3,0,0.5c1.7,0,3.3,0,4.9,0c0-0.1,0-0.2,0-0.3
		c0-3.1,0-6.3,0-9.4c0-0.7-0.1-1.4-0.2-2.1c-0.4-2.7-1.8-4.5-4.5-5.3c-1.5-0.4-3-0.5-4.5-0.5C5.8,70.1,2.9,70.1,0,70.1z M6.2,34.1
		c0.1,0.2,0.1,0.4,0.2,0.5c1.4,3.4,3.2,6.6,5.4,9.5c4.8,6.2,10.9,10.4,18.7,11.8c0.7,0.1,1.4,0.2,2.1,0.3c0-1.2,0-2.4,0-3.6
		c-0.1,0-0.2-0.1-0.3-0.1C29,52,26,50.8,23.3,48.8c-4.7-3.5-7.7-8.1-9.8-13.5c-0.1-0.3-0.1-0.6,0.1-0.8c1.2-1.6,2.7-3,4.2-4.2
		c3.8-3,8-4.9,12.7-5.6c0.7-0.1,1.3-0.2,2-0.3c0-1.1,0-2.2,0-3.4c-0.7,0.1-1.4,0.1-2,0.2c-2.8,0.4-5.4,1.2-8,2.3
		c-4.2,1.7-8.1,4.1-11.8,6.8C9.2,31.6,7.7,32.9,6.2,34.1z M32.7,45.2c0,0,0.1,0.1,0.1,0.1c0.1,0,0.1,0.1,0.2,0.1
		c1.6,0.5,3.3,0.6,4.9,0.3c2.3-0.4,4.3-1.4,6.2-2.7c2.9-1.9,5.4-4.3,7.6-6.9c0.4-0.5,0.9-1.1,1.3-1.6c-0.1-0.1-0.1-0.2-0.2-0.2
		c-1.1-1.1-2.1-2.3-3.2-3.3c-4.2-3.7-8.9-6.2-14.6-6.4c-0.8,0-1.6,0-2.4,0c0,1.5,0,2.8,0,4.2c5.8-0.7,10.4,1.4,14.2,5.7
		c-2.1,1.7-4.1,3.4-6.1,5.1c-0.1-0.2-0.2-0.3-0.3-0.4c-0.6-1-1.2-2-1.8-3c-1.3-2-3-3.3-5.4-3.6c-0.2,0-0.3,0-0.5,0
		C32.7,36.7,32.7,41,32.7,45.2z M47.3,87.8c0.2,0,0.3,0,0.5,0c2.6,0,5.2,0,7.8,0c1,0,2-0.1,3-0.2c2.6-0.4,4.4-1.8,5.2-4.3
		c0.8-2.7,0.8-5.4,0-8c-0.7-2.3-2.2-3.9-4.6-4.6c-1-0.3-2.1-0.4-3.2-0.5c-2.8-0.1-5.6-0.1-8.4-0.1c-0.1,0-0.2,0-0.3,0
		C47.3,76,47.3,81.9,47.3,87.8z M73.7,87.7c1.7,0,3.3,0,4.9,0c0.4-1,0.7-2,1.1-3.1c2.8,0,5.5,0,8.2,0c0.3,1,0.7,2.1,1,3.1
		c1.8,0,3.5,0,5.4,0c-2.3-5.9-4.7-11.8-7-17.6c-2.2,0-4.5,0-6.7,0C78.4,76,76.1,81.8,73.7,87.7z M31.4,87.8
		c1.9-5.9,3.8-11.7,5.7-17.6c-1.7,0-3.4,0-5.1,0c-1.4,4.6-2.8,9.2-4.2,14c-1.3-4.7-2.7-9.3-4-14c-1.8,0-3.6,0-5.4,0
		c1.9,5.9,3.8,11.8,5.7,17.6C26.6,87.8,29,87.8,31.4,87.8z M32.6,45.3c-0.7-0.4-1.5-0.7-2.2-1.1c-2.9-1.9-4.7-4.7-5.8-7.9
		c0-0.1,0-0.3,0.1-0.4c0.4-0.4,0.7-0.7,1.1-1.1c1.4-1.2,3-2.1,4.9-2.4c0.6-0.1,1.2-0.1,1.8-0.1c0-1.1,0-2.3,0-3.6
		c-0.9,0.2-1.7,0.3-2.5,0.5c-4.2,1-7.8,3-10.9,5.9c-0.2,0.2-0.3,0.4-0.2,0.7c0.7,2.1,1.8,4.1,3.1,6c2.2,2.9,4.9,5.1,8.4,6.2
		c0.7,0.2,1.4,0.4,2.1,0.6C32.6,47.4,32.6,46.4,32.6,45.3z M39.3,87.8c1.7,0,3.3,0,5,0c0-5.9,0-11.8,0-17.6c-1.7,0-3.3,0-5,0
		C39.3,76,39.3,81.9,39.3,87.8z M66.7,70.1c0,5.9,0,11.8,0,17.6c1.7,0,3.3,0,5,0c0-5.9,0-11.8,0-17.6C70,70.1,68.4,70.1,66.7,70.1z
		 M100.2,86.2c-0.1-0.4-0.1-0.9-0.3-1.2c-0.6-1-2-1.4-3.1-0.9c-1.1,0.5-1.6,1.6-1.3,2.8c0.3,1.2,1.4,1.8,2.7,1.7
		C99.5,88.4,100.2,87.6,100.2,86.2z"/>
	<path d="M77.1,14.7c0,0.2,0,0.4,0,0.6c0,15.2,0,30.5,0,45.7c0,0.2,0,0.4,0,0.6c-14.8,0-29.6,0-44.4,0c0-1.8,0-3.6,0-5.4
		c0.6,0,1.2,0.1,1.8,0.1c1.4,0,2.9,0,4.3-0.1c2.2-0.2,4.5-0.6,6.7-1c4.1-0.8,8.2-1.9,12.1-3.3c3.4-1.2,6.7-2.6,9.8-4.4
		c1.4-0.8,2.8-1.8,4.1-2.7c0.1-0.1,0.2-0.2,0.3-0.3c-0.3-0.2-0.6-0.5-0.9-0.7c-1.7-1-3.3-1.9-5-2.9c-0.7-0.4-1.5-0.9-2.2-1.3
		c-0.8,0.7-1.6,1.4-2.4,2c-3.1,2.5-6.2,4.9-9.7,6.8c-3.8,2.1-7.8,3.5-12.1,4c-2.2,0.3-4.4,0.4-6.7,0.1c0-1.3,0-2.5,0-3.8
		c0.8,0.1,1.6,0.1,2.5,0.2c2.3,0.1,4.5-0.3,6.7-1c3.1-1,5.8-2.5,8.5-4.4c3.7-2.6,7-5.6,9.9-9c0.1-0.1,0.2-0.2,0.3-0.4
		c-0.1-0.2-0.2-0.3-0.4-0.5C56,28.8,50.8,25,44.7,22.7c-2.5-0.9-5.1-1.5-7.8-1.7c-1.4-0.1-2.8,0-4.2,0c0-2.1,0-4.2,0-6.3
		C47.5,14.7,62.3,14.7,77.1,14.7z"/>
	<path d="M0,70.1c2.9,0,5.8,0,8.7,0c1.5,0,3,0.1,4.5,0.5c2.7,0.8,4.1,2.7,4.5,5.3c0.1,0.7,0.2,1.4,0.2,2.1c0,3.1,0,6.3,0,9.4
		c0,0.1,0,0.2,0,0.3c-1.6,0-3.2,0-4.9,0c0-0.2,0-0.3,0-0.5c0-2.9,0-5.7-0.1-8.6c0-0.5-0.1-1.1-0.2-1.6c-0.4-1.6-1.3-2.4-2.9-2.6
		c-0.3,0-0.6,0-0.9,0c-1.2,0-2.4,0-3.7,0c0,4.5,0,8.9,0,13.4c-0.2,0-0.4,0-0.5,0c-1.4,0-2.7,0-4.1,0c-0.2,0-0.3,0-0.5,0
		C0,81.9,0,76,0,70.1z"/>
	<path d="M6.2,34.1c1.5-1.2,3-2.5,4.6-3.7c3.6-2.8,7.5-5.1,11.8-6.8c2.6-1.1,5.2-1.9,8-2.3c0.7-0.1,1.3-0.2,2-0.2c0,1.1,0,2.2,0,3.4
		c-0.6,0.1-1.3,0.2-2,0.3c-4.8,0.7-9,2.6-12.7,5.6c-1.6,1.2-3,2.7-4.2,4.2c-0.2,0.3-0.3,0.5-0.1,0.8c2.1,5.4,5.1,10,9.8,13.5
		c2.7,2,5.7,3.2,8.9,3.7c0.1,0,0.2,0.1,0.3,0.1c0,1.2,0,2.3,0,3.6c-0.7-0.1-1.4-0.2-2.1-0.3c-7.8-1.4-13.9-5.6-18.7-11.8
		c-2.2-2.9-4.1-6-5.4-9.5C6.3,34.5,6.3,34.3,6.2,34.1z"/>
	<path d="M32.7,45.2c0-4.2,0-8.5,0-12.7c0.2,0,0.4,0,0.5,0c2.4,0.3,4.2,1.5,5.4,3.6c0.6,1,1.2,2,1.8,3c0.1,0.1,0.2,0.3,0.3,0.4
		c2-1.7,4-3.4,6.1-5.1c-3.8-4.2-8.4-6.4-14.2-5.7c0-1.4,0-2.8,0-4.2c0.8,0,1.6,0,2.4,0c5.7,0.2,10.5,2.7,14.6,6.4
		c1.2,1,2.2,2.2,3.2,3.3c0.1,0.1,0.1,0.1,0.2,0.2c-0.4,0.5-0.9,1.1-1.3,1.6c-2.2,2.6-4.7,5-7.6,6.9c-1.9,1.3-4,2.3-6.2,2.7
		c-1.7,0.3-3.3,0.2-4.9-0.3c-0.1,0-0.1,0-0.2-0.1C32.8,45.2,32.8,45.2,32.7,45.2z"/>
	<path d="M47.3,87.8c0-5.9,0-11.8,0-17.7c0.1,0,0.2,0,0.3,0c2.8,0,5.6,0,8.4,0.1c1.1,0,2.2,0.2,3.2,0.5c2.4,0.6,3.9,2.2,4.6,4.6
		c0.8,2.7,0.8,5.4,0,8c-0.8,2.6-2.6,3.9-5.2,4.3c-1,0.1-2,0.2-3,0.2c-2.6,0-5.2,0-7.8,0C47.7,87.8,47.5,87.8,47.3,87.8z M52.3,73.9
		c0,3.4,0,6.8,0,10.2c1.2-0.1,2.4,0,3.5-0.2c1.8-0.2,3-1.2,3.5-3c0.3-1.2,0.3-2.4,0-3.6c-0.4-1.7-1.5-2.8-3.2-3.1
		C54.9,74,53.6,74,52.3,73.9z"/>
	<path d="M73.7,87.7c2.3-5.9,4.6-11.8,7-17.6c2.2,0,4.4,0,6.7,0c2.3,5.9,4.7,11.7,7,17.6c-1.8,0-3.6,0-5.4,0c-0.3-1-0.7-2-1-3.1
		c-2.8,0-5.5,0-8.2,0c-0.4,1-0.7,2-1.1,3.1C77,87.7,75.4,87.7,73.7,87.7z M87,81.6c-1-2.7-2-5.4-3-8.2c-1.1,2.8-2.1,5.5-3.1,8.2
		C82.9,81.6,84.9,81.6,87,81.6z"/>
	<path d="M31.4,87.8c-2.4,0-4.8,0-7.2,0c-1.9-5.9-3.8-11.7-5.7-17.6c1.8,0,3.6,0,5.4,0c1.3,4.6,2.6,9.2,4,14c1.4-4.7,2.8-9.3,4.2-14
		c1.7,0,3.4,0,5.1,0C35.2,76,33.3,81.9,31.4,87.8z"/>
	<path d="M32.6,45.3c0,1,0,2.1,0,3.2c-0.7-0.2-1.4-0.3-2.1-0.6c-3.5-1.1-6.2-3.3-8.4-6.2c-1.3-1.8-2.4-3.8-3.1-6
		c-0.1-0.3-0.1-0.5,0.2-0.7c3.1-2.9,6.8-4.9,10.9-5.9c0.8-0.2,1.6-0.3,2.5-0.5c0,1.3,0,2.4,0,3.6c-0.6,0-1.2,0-1.8,0.1
		c-1.9,0.3-3.5,1.2-4.9,2.4c-0.4,0.3-0.8,0.7-1.1,1.1c-0.1,0.1-0.2,0.3-0.1,0.4c1.1,3.2,2.9,6,5.8,7.9
		C31.1,44.6,31.8,44.9,32.6,45.3z"/>
	<path d="M39.3,87.8c0-5.9,0-11.7,0-17.6c1.7,0,3.3,0,5,0c0,5.9,0,11.7,0,17.6C42.6,87.8,41,87.8,39.3,87.8z"/>
	<path d="M66.7,70.1c1.7,0,3.3,0,5,0c0,5.9,0,11.7,0,17.6c-1.6,0-3.3,0-5,0C66.7,81.9,66.7,76,66.7,70.1z"/>
	<path d="M100.2,86.2c-0.1,1.4-0.8,2.2-2,2.3c-1.3,0.2-2.4-0.5-2.7-1.7c-0.3-1.2,0.2-2.3,1.3-2.8c1.1-0.5,2.6-0.1,3.1,0.9
		C100.1,85.3,100.1,85.8,100.2,86.2z M97.8,88c1,0,1.7-0.7,1.7-1.8c0-1-0.7-1.8-1.7-1.8c-1,0-1.7,0.7-1.7,1.8
		C96.1,87.2,96.8,88,97.8,88z"/>
	<path class="st0" d="M52.3,73.9c1.3,0.1,2.6,0.1,3.8,0.3c1.7,0.3,2.8,1.4,3.2,3.1c0.3,1.2,0.3,2.4,0,3.6c-0.5,1.8-1.7,2.8-3.5,3
		C54.7,84,53.5,84,52.3,84C52.3,80.6,52.3,77.3,52.3,73.9z"/>
	<path class="st0" d="M87,81.6c-2.1,0-4,0-6.1,0c1-2.7,2-5.4,3.1-8.2C85,76.2,86,78.8,87,81.6z"/>
	<path class="st0" d="M97.8,88c-1,0-1.7-0.8-1.7-1.8c0-1,0.7-1.8,1.7-1.8c1,0,1.7,0.8,1.7,1.8C99.6,87.2,98.8,88,97.8,88z
		 M98.4,86.4c0.5-0.2,0.6-0.4,0.6-0.8c0-0.4-0.4-0.6-0.7-0.6c-0.4,0-0.8,0-1.3,0c0,0.8,0,1.6,0,2.5c0.2,0,0.4,0,0.6,0
		c0-0.4,0-0.7,0-1.1c0.2,0.1,0.3,0.2,0.3,0.2c0.1,0.1,0.2,0.3,0.3,0.5c0.2,0.4,0.4,0.5,0.9,0.4C98.7,87.1,98.5,86.7,98.4,86.4z"/>
	<path d="M98.4,86.4c0.2,0.3,0.4,0.7,0.6,1c-0.4,0.1-0.7,0-0.9-0.4c-0.1-0.2-0.2-0.3-0.3-0.5c-0.1-0.1-0.2-0.1-0.3-0.2
		c0,0.4,0,0.7,0,1.1c-0.2,0-0.4,0-0.6,0c0-0.8,0-1.6,0-2.5c0.4,0,0.9,0,1.3,0c0.4,0,0.7,0.2,0.7,0.6C99,86,98.9,86.2,98.4,86.4z
		 M97.5,86c0.3-0.1,0.6-0.1,0.8-0.2c0,0,0-0.3,0-0.3c-0.2-0.1-0.5-0.1-0.8-0.2C97.5,85.6,97.5,85.7,97.5,86z"/>
	<path class="st0" d="M97.5,86c0-0.3,0-0.4,0-0.7c0.3,0.1,0.5,0.1,0.8,0.2c0,0,0,0.3,0,0.3C98,85.9,97.8,85.9,97.5,86z"/>
</g>
</svg>
